<?xml version="1.0" encoding="utf-8"?>
<!-- Generator: Adobe Adobe Illustrator 24.2.0, SVG Export Plug-In . SVG Version: 6.00 Build 0)  -->
<svg version="1.1" xmlns="http://www.w3.org/2000/svg" xmlns:xlink="http://www.w3.org/1999/xlink" x="0px" y="0px" width="2500px"
	 height="2500px" viewBox="0 0 2500 2500" style="enable-background:new 0 0 2500 2500;" xml:space="preserve">
<style type="text/css">
	.st0{fill:#136E61;}
	.st1{fill:#FFFFFF;}
	.st2{fill:#0D7063;}
	.st3{font-family:'ArialRoundedMTBold';}
	.st4{font-size:1053.4302px;}
</style>
<g id="Layer_2">
</g>
<g id="Layer_4">
	<path class="st1" d="M0,1966.28V533.72C0,238.95,238.95,0,533.72,0h1432.57C2261.05,0,2500,238.95,2500,533.72v1432.57
		c0,294.76-238.95,533.72-533.72,533.72H533.72C238.95,2500,0,2261.05,0,1966.28z"/>
	<g>
		<g>
			<path class="st0" d="M1033.32,1120.41c-169.72-3.14-335.32-16.34-492.25-74.22c-74.98-27.66-143.73-63.74-200.75-116.01
				C261.12,857.57,225.16,771,231.87,670.44c8.53-127.66,24.67-254.5,58.52-379.01c9.88-36.35,25.45-71.54,39.35-106.97
				c4.28-10.91,11-21.2,17.74-31.18c44.94-66.59,102.35-78.41,171.32-30.15c42.84,29.98,82.24,64.76,118.24,101.21
				c43.75,44.3,90.01,67.66,161.3,61.14c104.46-9.55,208.73,5.23,311.19,26.25c85.29,17.5,88.47,23.02,109.39,2.74
				c223.58-216.71,277.32-201.36,325.16-151.3c34.91,36.53,47.16,81.47,56.45,126.84c24.76,120.9,21.15,242.92,14.68,364.81
				c-3.16,59.53-6.43,119.44-16.64,178.22c-21.41,123.17-106.44,200.82-235.21,244.48
				C1257.6,1113.4,1147.48,1122.19,1033.32,1120.41z M418.04,709.23c0.47,86.91,59.08,148.75,155.82,164.41
				c89.19,14.43,168.3-25.97,202.25-103.28c31.46-71.65,9.45-149.72-54.5-193.27c-66.32-45.16-164.68-46.9-229.05-2.86
				C444.32,607.25,423.27,653.15,418.04,709.23z M1098.81,626.23c-5.23,4.55-10.63,8.96-15.66,13.67
				c-57.09,53.4-68.16,142.06-25.78,205.93c39.71,59.85,128.38,90.92,207.94,72.87c75.11-17.04,124.94-68.67,136.55-141.45
				c10.22-64.07-24.41-131.1-83.9-162.37C1248.83,578.52,1164,582.32,1098.81,626.23z M927.87,962.5
				c28.91-17.25,32.07-29.87,8.53-38.53c-35.29-12.99-72.44-14.96-109.46-6.22c-18.12,4.28-20.61,14.59-8.76,27.59
				C843.13,972.73,889.07,980.71,927.87,962.5z"/>
			<path class="st0" d="M1091.52,1727.54c-239.59-125.94,69.11-202.69-8.6-223.13c-13.39-3.52-85.5,56.03-133.1,141.45
				c-14.16,25.41-86.31,33.15-82.36-17.64c4.52-58.2,8.98-116.45,11.24-174.75c0.67-17.27,9.19-43.12-8.81-53.62
				c-53.32-31.1-9.03,263.7-46.27,313.63c-55.07,73.82-64.29-77.9-94.28-269.91c-8.9-56.94-3.81-7.23-78.32-88.55
				c-96.76-105.62-149.01-294.17-66.92-263.42c228.74,85.69,485.51,75.3,728.46,31.44c59.16-10.68,300.24,282.44,247.5,296.88
				c-24.29,6.65-43.19-65.36-115.33-56.07c-46.28,5.96-83.47,30.11-89.77,74.75c-11.68,82.8-5.95,167.3-9.57,250.72
				c-0.25,5.73-4.64,14.47-9.77,16.47C1257.63,1736.16,1148.93,1757.72,1091.52,1727.54z"/>
			<path class="st0" d="M1518.14,2091.74c-15.15,170.17-122.72,267.92-264.67,249.58c-130.39-16.85-183.59-118.64-197.04-263
				c-2.35-25.18-0.2-52.14,4.99-76.78c6.51-30.89,30.85-48.28,58.95-49.01c28.67-0.75,47.82,12.6,56.8,46.71
				c10.3,39.14,15.71,80.04,25.3,119.48c11.72,48.22,41.44,73.92,81.91,73.7c33.45-0.18,58.14-17.71,73.35-53.07
				c21.74-50.57,21.41-105.49,22.19-160.05c2.31-160.29,4.05-320.59,6.78-480.87c0.33-19.37,3.36-39.42,8.64-57.76
				c9.6-33.35,33.01-50.47,63.31-50.33c30.44,0.14,53.89,16.9,62.82,50.8c5.95,22.61,8.95,47.28,8.76,70.98
				c-1.28,155.82-3.51,311.64-6.09,467.44C1523.51,2016.18,1520.39,2052.76,1518.14,2091.74z"/>
			<path class="st0" d="M576.66,1528c-8.3-70.13-10.15-138.98-14.32-207.63c-0.43-7.02-1.28-21.45,7.19-21.45
				c39.65,0,24.58,66.2,114.24,123.84c5.48,3.53,10.23,11.48,10.36,17.53c1.69,80.59,8.94,161.56-9.05,241.81
				c-7.92,35.33-58.29,40.32-67.71,4.19C617.35,1686.3,583.1,1582.39,576.66,1528z"/>
			<path class="st0" d="M959.07,1676.35c36.83-2.66,49.43,27.67,72.14,44c13.27,9.55,11.39,19.23-9.77,18.84
				c-49.52-0.9-143.1,15.64-165.89-11.81C828.83,1695.19,913.24,1679.65,959.07,1676.35z"/>
			<ellipse class="st0" cx="604.17" cy="709.36" rx="130.72" ry="115.8"/>
			<ellipse class="st0" cx="1217.66" cy="757" rx="130.72" ry="115.8"/>
		</g>
		<text transform="matrix(1 0 0 1 1511.2513 2327.6611)" class="st2 st3 st4">R</text>
	</g>
</g>
<g id="Layer_3">
</g>
</svg>
