<?xml version="1.0" encoding="utf-8"?>
<!-- Generator: Adobe Adobe Illustrator 24.2.0, SVG Export Plug-In . SVG Version: 6.00 Build 0)  -->
<svg version="1.1" xmlns="http://www.w3.org/2000/svg" xmlns:xlink="http://www.w3.org/1999/xlink" x="0px" y="0px" width="2500px"
	 height="2500px" viewBox="0 0 2500 2500" style="enable-background:new 0 0 2500 2500;" xml:space="preserve">
<style type="text/css">
	.st0{fill:#136E61;}
	.st1{fill:#672D10;}
	.st2{fill:#FFFFFF;}
	.st3{fill:#E9DED8;}
</style>
<g id="Layer_2">
	<g>
		<g>
			<path class="st0" d="M931.86,1111.45c-177.27-3.28-350.24-17.07-514.15-77.53c-78.31-28.89-150.13-66.58-209.69-121.18
				C125.31,836.92,87.75,746.5,94.77,641.46c8.91-133.34,25.76-265.83,61.12-395.87c10.32-37.97,26.59-74.72,41.1-111.73
				c4.47-11.39,11.49-22.15,18.53-32.57c46.94-69.55,106.91-81.9,178.94-31.49c44.74,31.31,85.9,67.64,123.5,105.72
				c45.69,46.27,94.02,70.67,168.48,63.86c109.1-9.98,218.01,5.46,325.04,27.42c89.09,18.27,92.4,24.05,114.26,2.86
				c233.53-226.35,289.66-210.32,339.62-158.03c36.46,38.16,49.26,85.1,58.97,132.49c25.86,126.28,22.09,253.73,15.34,381.04
				c-3.3,62.18-6.71,124.75-17.39,186.15c-22.36,128.65-111.18,209.76-245.67,255.36
				C1166.13,1104.13,1051.11,1113.31,931.86,1111.45z M289.22,681.98c0.49,90.78,61.71,155.37,162.75,171.72
				c93.16,15.07,175.79-27.12,211.25-107.87c32.86-74.83,9.87-156.38-56.93-201.87c-69.27-47.17-172.01-48.99-239.24-2.99
				C316.66,575.46,294.68,623.41,289.22,681.98z M1000.28,595.28c-5.46,4.75-11.1,9.36-16.36,14.28
				c-59.63,55.77-71.19,148.38-26.93,215.09c41.47,62.51,134.09,94.97,217.2,76.11c78.45-17.8,130.5-71.72,142.63-147.74
				c10.67-66.92-25.5-136.93-87.63-169.6C1156.97,545.45,1068.36,549.42,1000.28,595.28z M821.72,946.51
				c30.2-18.01,33.5-31.2,8.91-40.24c-36.86-13.56-75.66-15.62-114.33-6.5c-18.93,4.47-21.53,15.23-9.15,28.82
				C733.22,957.2,781.2,965.54,821.72,946.51z"/>
			<path class="st0" d="M992.66,1745.59c-250.25-131.55,72.19-211.71-8.99-233.05c-13.99-3.68-89.31,58.52-139.02,147.74
				c-14.79,26.54-90.15,34.62-86.02-18.42c4.73-60.79,9.38-121.63,11.74-182.53c0.7-18.04,9.6-45.04-9.2-56.01
				c-55.69-32.49-9.43,275.43-48.33,327.58c-57.52,77.1-67.15-81.36-98.48-281.92c-9.29-59.48-3.98-7.55-81.8-92.49
				c-101.07-110.32-155.64-307.26-69.9-275.14c238.92,89.5,507.11,78.65,760.87,32.84c61.79-11.15,313.6,295.01,258.51,310.09
				c-25.37,6.95-45.11-68.27-120.46-58.57c-48.34,6.22-87.19,31.45-93.76,78.07c-12.2,86.49-6.21,174.74-9.99,261.87
				c-0.26,5.98-4.85,15.12-10.21,17.2C1166.16,1754.6,1052.62,1777.11,992.66,1745.59z"/>
			<path class="st0" d="M454.89,1537.18c-8.67-73.25-10.6-145.16-14.96-216.86c-0.45-7.33-1.33-22.4,7.51-22.4
				c41.41,0,25.67,69.14,119.32,129.35c5.73,3.68,10.68,11.99,10.82,18.31c1.77,84.17,9.33,168.74-9.46,252.57
				c-8.27,36.91-60.88,42.12-70.72,4.38C497.39,1702.52,461.61,1593.98,454.89,1537.18z"/>
			<path class="st0" d="M854.32,1692.12c38.47-2.77,51.63,28.9,75.35,45.96c13.86,9.97,11.89,20.08-10.2,19.68
				c-51.73-0.94-149.47,16.34-173.27-12.33C718.28,1711.81,806.45,1695.57,854.32,1692.12z"/>
			<ellipse class="st0" cx="483.63" cy="682.11" rx="136.54" ry="120.95"/>
			<ellipse class="st0" cx="1124.41" cy="731.87" rx="136.54" ry="120.95"/>
		</g>
		<g>
			<path class="st1" d="M1699.12,2083.79h-40.07v220.46c0,29.02-5.27,50.4-15.8,64.12c-10.53,13.73-24.27,20.59-41.22,20.59
				c-18.24,0-32.36-7.18-42.38-21.53c-10.02-14.35-15.02-35.41-15.02-63.19v-527.98c0-29.96,5.52-51.64,16.57-65.06
				c11.04-13.41,28.89-20.13,53.55-20.13h186.07c25.68,0,47.64,1.33,65.88,3.98c18.23,2.65,34.67,8.04,49.31,16.15
				c17.72,9.05,33.38,22,47,38.85c13.61,16.85,23.95,36.44,31.01,58.74c7.06,22.31,10.59,45.95,10.59,70.91
				c0,51.18-11.88,92.05-35.64,122.63c-23.76,30.58-59.78,52.27-108.06,65.06c20.29,13.11,39.68,32.46,58.17,58.04
				c18.49,25.59,34.99,52.82,49.5,81.68c14.51,28.87,25.81,54.92,33.9,78.17c8.09,23.25,12.14,39.24,12.14,47.98
				c0,9.05-2.38,18.02-7.13,26.91c-4.76,8.89-11.24,15.91-19.45,21.06c-8.22,5.15-17.72,7.72-28.51,7.72
				c-12.85,0-23.63-3.67-32.36-11c-8.73-7.33-16.25-16.62-22.54-27.85c-6.3-11.23-14.83-27.77-25.62-49.62l-45.84-92.68
				c-16.44-34.01-31.14-59.91-44.11-77.7c-12.97-17.79-26.14-29.96-39.49-36.51C1736.23,2087.07,1719.4,2083.79,1699.12,2083.79z
				 M1764.61,1795.47h-105.56v188.63h102.48c27.48,0,50.59-2.88,69.34-8.66c18.74-5.77,33.07-15.6,42.96-29.49
				c9.88-13.88,14.83-33,14.83-57.34c0-19.03-3.99-35.81-11.94-50.32c-7.96-14.51-19.01-25.35-33.13-32.53
				C1830.23,1798.9,1803.9,1795.47,1764.61,1795.47z"/>
		</g>
	</g>
</g>
<g id="Layer_4">
	<g>
		<path class="st1" d="M1438.26,2126c-15.82,177.74-128.18,279.84-276.45,260.68c-136.19-17.6-191.76-123.91-205.8-274.7
			c-2.45-26.3-0.21-54.46,5.21-80.2c6.79-32.27,32.22-50.43,61.57-51.19c29.94-0.78,49.95,13.17,59.32,48.78
			c10.75,40.88,16.41,83.6,26.42,124.79c12.24,50.37,43.29,77.21,85.55,76.97c34.93-0.19,60.73-18.49,76.61-55.43
			c22.71-52.82,22.36-110.18,23.18-167.17c2.41-167.42,4.23-334.85,7.08-502.26c0.34-20.23,3.51-41.17,9.02-60.33
			c10.03-34.83,34.48-52.71,66.12-52.57c31.8,0.14,56.29,17.65,65.61,53.06c6.22,23.61,9.35,49.39,9.15,74.14
			c-1.34,162.76-3.67,325.51-6.36,488.24C1443.87,2047.08,1440.61,2085.28,1438.26,2126z"/>
	</g>
</g>
<g id="Layer_3">
</g>
</svg>
