<svg enable-background="new 0 0 2500 2500" height="2500" viewBox="0 0 2500 2500" width="2500" xmlns="http://www.w3.org/2000/svg"><path d="m0 1966.28v-1432.56c0-294.77 238.95-533.72 533.72-533.72h1432.57c294.76 0 533.71 238.95 533.71 533.72v1432.57c0 294.76-238.95 533.72-533.72 533.72h-1432.56c-294.77-.01-533.72-238.96-533.72-533.73z" fill="#fff"/><path d="m1033.32 1120.41c-169.72-3.14-335.32-16.34-492.25-74.22-74.98-27.66-143.73-63.74-200.75-116.01-79.2-72.61-115.16-159.18-108.45-259.74 8.53-127.66 24.67-254.5 58.52-379.01 9.88-36.35 25.45-71.54 39.35-106.97 4.28-10.91 11-21.2 17.74-31.18 44.94-66.59 102.35-78.41 171.32-30.15 42.84 29.98 82.24 64.76 118.24 101.21 43.75 44.3 90.01 67.66 161.3 61.14 104.46-9.55 208.73 5.23 311.19 26.25 85.29 17.5 88.47 23.02 109.39 2.74 223.58-216.71 277.32-201.36 325.16-151.3 34.91 36.53 47.16 81.47 56.45 126.84 24.76 120.9 21.15 242.92 14.68 364.81-3.16 59.53-6.43 119.44-16.64 178.22-21.41 123.17-106.44 200.82-235.21 244.48-105.76 35.88-215.88 44.67-330.04 42.89zm-615.28-411.18c.47 86.91 59.08 148.75 155.82 164.41 89.19 14.43 168.3-25.97 202.25-103.28 31.46-71.65 9.45-149.72-54.5-193.27-66.32-45.16-164.68-46.9-229.05-2.86-48.24 33.02-69.29 78.92-74.52 135zm680.77-83c-5.23 4.55-10.63 8.96-15.66 13.67-57.09 53.4-68.16 142.06-25.78 205.93 39.71 59.85 128.38 90.92 207.94 72.87 75.11-17.04 124.94-68.67 136.55-141.45 10.22-64.07-24.41-131.1-83.9-162.37-69.13-36.36-153.96-32.56-219.15 11.35zm-170.94 336.27c28.91-17.25 32.07-29.87 8.53-38.53-35.29-12.99-72.44-14.96-109.46-6.22-18.12 4.28-20.61 14.59-8.76 27.59 24.95 27.39 70.89 35.37 109.69 17.16z" fill="#136e61"/><path d="m1091.52 1727.54c-239.59-125.94 69.11-202.69-8.6-223.13-13.39-3.52-85.5 56.03-133.1 141.45-14.16 25.41-86.31 33.15-82.36-17.64 4.52-58.2 8.98-116.45 11.24-174.75.67-17.27 9.19-43.12-8.81-53.62-53.32-31.1-9.03 263.7-46.27 313.63-55.07 73.82-64.29-77.9-94.28-269.91-8.9-56.94-3.81-7.23-78.32-88.55-96.76-105.62-149.01-294.17-66.92-263.42 228.74 85.69 485.51 75.3 728.46 31.44 59.16-10.68 300.24 282.44 247.5 296.88-24.29 6.65-43.19-65.36-115.33-56.07-46.28 5.96-83.47 30.11-89.77 74.75-11.68 82.8-5.95 167.3-9.57 250.72-.25 5.73-4.64 14.47-9.77 16.47-77.99 30.37-186.69 51.93-244.1 21.75z" fill="#136e61"/><path d="m1518.14 2091.74c-15.15 170.17-122.72 267.92-264.67 249.58-130.39-16.85-183.59-118.64-197.04-263-2.35-25.18-.2-52.14 4.99-76.78 6.51-30.89 30.85-48.28 58.95-49.01 28.67-.75 47.82 12.6 56.8 46.71 10.3 39.14 15.71 80.04 25.3 119.48 11.72 48.22 41.44 73.92 81.91 73.7 33.45-.18 58.14-17.71 73.35-53.07 21.74-50.57 21.41-105.49 22.19-160.05 2.31-160.29 4.05-320.59 6.78-480.87.33-19.37 3.36-39.42 8.64-57.76 9.6-33.35 33.01-50.47 63.31-50.33 30.44.14 53.89 16.9 62.82 50.8 5.95 22.61 8.95 47.28 8.76 70.98-1.28 155.82-3.51 311.64-6.09 467.44-.63 36.62-3.75 73.2-6 112.18z" fill="#672d10"/><g fill="#136e61"><path d="m576.66 1528c-8.3-70.13-10.15-138.98-14.32-207.63-.43-7.02-1.28-21.45 7.19-21.45 39.65 0 24.58 66.2 114.24 123.84 5.48 3.53 10.23 11.48 10.36 17.53 1.69 80.59 8.94 161.56-9.05 241.81-7.92 35.33-58.29 40.32-67.71 4.19-.02.01-34.27-103.9-40.71-158.29z"/><path d="m959.07 1676.35c36.83-2.66 49.43 27.67 72.14 44 13.27 9.55 11.39 19.23-9.77 18.84-49.52-.9-143.1 15.64-165.89-11.81-26.72-32.19 57.69-47.73 103.52-51.03z"/><ellipse cx="604.17" cy="709.36" rx="130.72" ry="115.8"/><ellipse cx="1217.66" cy="757" rx="130.72" ry="115.8"/></g><path d="m1774.47 2038.33h-40.07v220.46c0 29.02-5.27 50.4-15.79 64.12-10.53 13.73-24.27 20.59-41.22 20.59-18.24 0-32.36-7.18-42.38-21.53s-15.02-35.41-15.02-63.19v-527.98c0-29.96 5.52-51.64 16.57-65.06 11.04-13.41 28.89-20.13 53.55-20.13h186.07c25.68 0 47.64 1.33 65.88 3.98 18.23 2.65 34.67 8.04 49.31 16.15 17.72 9.05 33.38 22 47 38.85 13.61 16.85 23.95 36.44 31.01 58.74 7.06 22.31 10.59 45.95 10.59 70.91 0 51.18-11.88 92.05-35.64 122.63s-59.78 52.27-108.06 65.06c20.29 13.11 39.68 32.46 58.17 58.04 18.49 25.59 34.99 52.82 49.5 81.68 14.51 28.87 25.81 54.92 33.9 78.17s12.14 39.24 12.14 47.98c0 9.05-2.38 18.02-7.13 26.91-4.76 8.89-11.24 15.91-19.45 21.06-8.22 5.15-17.72 7.72-28.51 7.72-12.85 0-23.63-3.67-32.36-11s-16.25-16.62-22.54-27.85c-6.3-11.23-14.83-27.77-25.62-49.62l-45.84-92.68c-16.44-34.01-31.14-59.91-44.11-77.7s-26.14-29.96-39.49-36.51c-13.35-6.52-30.18-9.8-50.46-9.8zm65.49-288.32h-105.56v188.63h102.48c27.48 0 50.59-2.88 69.34-8.66 18.74-5.77 33.07-15.6 42.96-29.49 9.88-13.88 14.83-33 14.83-57.34 0-19.03-3.99-35.81-11.94-50.32-7.96-14.51-19.01-25.35-33.13-32.53-13.36-6.86-39.69-10.29-78.98-10.29z" fill="#672d10"/></svg>