<svg enable-background="new 0 0 2500 2500" height="2500" viewBox="0 0 2500 2500" width="2500" xmlns="http://www.w3.org/2000/svg"><g fill="#136e61"><path d="m931.86 1111.45c-177.27-3.28-350.24-17.07-514.15-77.53-78.31-28.89-150.13-66.58-209.69-121.18-82.71-75.82-120.27-166.24-113.25-271.28 8.91-133.34 25.76-265.83 61.12-395.87 10.32-37.97 26.59-74.72 41.1-111.73 4.47-11.39 11.49-22.15 18.53-32.57 46.94-69.55 106.91-81.9 178.94-31.49 44.74 31.31 85.9 67.64 123.5 105.72 45.69 46.27 94.02 70.67 168.48 63.86 109.1-9.98 218.01 5.46 325.04 27.42 89.09 18.27 92.4 24.05 114.26 2.86 233.53-226.35 289.66-210.32 339.62-158.03 36.46 38.16 49.26 85.1 58.97 132.49 25.86 126.28 22.09 253.73 15.34 381.04-3.3 62.18-6.71 124.75-17.39 186.15-22.36 128.65-111.18 209.76-245.67 255.36-110.48 37.46-225.5 46.64-344.75 44.78zm-642.64-429.47c.49 90.78 61.71 155.37 162.75 171.72 93.16 15.07 175.79-27.12 211.25-107.87 32.86-74.83 9.87-156.38-56.93-201.87-69.27-47.17-172.01-48.99-239.24-2.99-50.39 34.49-72.37 82.44-77.83 141.01zm711.06-86.7c-5.46 4.75-11.1 9.36-16.36 14.28-59.63 55.77-71.19 148.38-26.93 215.09 41.47 62.51 134.09 94.97 217.2 76.11 78.45-17.8 130.5-71.72 142.63-147.74 10.67-66.92-25.5-136.93-87.63-169.6-72.22-37.97-160.83-34-228.91 11.86zm-178.56 351.23c30.2-18.01 33.5-31.2 8.91-40.24-36.86-13.56-75.66-15.62-114.33-6.5-18.93 4.47-21.53 15.23-9.15 28.82 26.07 28.61 74.05 36.95 114.57 17.92z"/><path d="m992.66 1745.59c-250.25-131.55 72.19-211.71-8.99-233.05-13.99-3.68-89.31 58.52-139.02 147.74-14.79 26.54-90.15 34.62-86.02-18.42 4.73-60.79 9.38-121.63 11.74-182.53.7-18.04 9.6-45.04-9.2-56.01-55.69-32.49-9.43 275.43-48.33 327.58-57.52 77.1-67.15-81.36-98.48-281.92-9.29-59.48-3.98-7.55-81.8-92.49-101.07-110.32-155.64-307.26-69.9-275.14 238.92 89.5 507.11 78.65 760.87 32.84 61.79-11.15 313.6 295.01 258.51 310.09-25.37 6.95-45.11-68.27-120.46-58.57-48.34 6.22-87.19 31.45-93.76 78.07-12.2 86.49-6.21 174.74-9.99 261.87-.26 5.98-4.85 15.12-10.21 17.2-81.46 31.75-195 54.26-254.96 22.74z"/><path d="m454.89 1537.18c-8.67-73.25-10.6-145.16-14.96-216.86-.45-7.33-1.33-22.4 7.51-22.4 41.41 0 25.67 69.14 119.32 129.35 5.73 3.68 10.68 11.99 10.82 18.31 1.77 84.17 9.33 168.74-9.46 252.57-8.27 36.91-60.88 42.12-70.72 4.38-.01-.01-35.79-108.55-42.51-165.35z"/><path d="m854.32 1692.12c38.47-2.77 51.63 28.9 75.35 45.96 13.86 9.97 11.89 20.08-10.2 19.68-51.73-.94-149.47 16.34-173.27-12.33-27.92-33.62 60.25-49.86 108.12-53.31z"/><ellipse cx="483.63" cy="682.11" rx="136.54" ry="120.95"/><ellipse cx="1124.41" cy="731.87" rx="136.54" ry="120.95"/></g><path d="m1699.12 2083.79h-40.07v220.46c0 29.02-5.27 50.4-15.8 64.12-10.53 13.73-24.27 20.59-41.22 20.59-18.24 0-32.36-7.18-42.38-21.53s-15.02-35.41-15.02-63.19v-527.98c0-29.96 5.52-51.64 16.57-65.06 11.04-13.41 28.89-20.13 53.55-20.13h186.07c25.68 0 47.64 1.33 65.88 3.98 18.23 2.65 34.67 8.04 49.31 16.15 17.72 9.05 33.38 22 47 38.85 13.61 16.85 23.95 36.44 31.01 58.74 7.06 22.31 10.59 45.95 10.59 70.91 0 51.18-11.88 92.05-35.64 122.63s-59.78 52.27-108.06 65.06c20.29 13.11 39.68 32.46 58.17 58.04 18.49 25.59 34.99 52.82 49.5 81.68 14.51 28.87 25.81 54.92 33.9 78.17s12.14 39.24 12.14 47.98c0 9.05-2.38 18.02-7.13 26.91-4.76 8.89-11.24 15.91-19.45 21.06-8.22 5.15-17.72 7.72-28.51 7.72-12.85 0-23.63-3.67-32.36-11s-16.25-16.62-22.54-27.85c-6.3-11.23-14.83-27.77-25.62-49.62l-45.84-92.68c-16.44-34.01-31.14-59.91-44.11-77.7s-26.14-29.96-39.49-36.51c-13.34-6.52-30.17-9.8-50.45-9.8zm65.49-288.32h-105.56v188.63h102.48c27.48 0 50.59-2.88 69.34-8.66 18.74-5.77 33.07-15.6 42.96-29.49 9.88-13.88 14.83-33 14.83-57.34 0-19.03-3.99-35.81-11.94-50.32-7.96-14.51-19.01-25.35-33.13-32.53-13.36-6.86-39.69-10.29-78.98-10.29z" fill="#672d10"/><path d="m1438.26 2126c-15.82 177.74-128.18 279.84-276.45 260.68-136.19-17.6-191.76-123.91-205.8-274.7-2.45-26.3-.21-54.46 5.21-80.2 6.79-32.27 32.22-50.43 61.57-51.19 29.94-.78 49.95 13.17 59.32 48.78 10.75 40.88 16.41 83.6 26.42 124.79 12.24 50.37 43.29 77.21 85.55 76.97 34.93-.19 60.73-18.49 76.61-55.43 22.71-52.82 22.36-110.18 23.18-167.17 2.41-167.42 4.23-334.85 7.08-502.26.34-20.23 3.51-41.17 9.02-60.33 10.03-34.83 34.48-52.71 66.12-52.57 31.8.14 56.29 17.65 65.61 53.06 6.22 23.61 9.35 49.39 9.15 74.14-1.34 162.76-3.67 325.51-6.36 488.24-.62 38.27-3.88 76.47-6.23 117.19z" fill="#672d10"/></svg>