<?xml version="1.0" encoding="UTF-8"?>
<svg id="Layer_4" data-name="Layer 4" xmlns="http://www.w3.org/2000/svg" viewBox="0 0 2500 2500">
  <defs>
    <style>
      .cls-1 {
        fill: #f6fbfa;
      }

      .cls-1, .cls-2, .cls-3 {
        stroke-width: 0px;
      }

      .cls-2 {
        fill: #156e61;
      }

      .cls-3 {
        fill: #682e12;
      }
    </style>
  </defs>
  <circle class="cls-1" cx="1250" cy="1250" r="1250"/>
  <g>
    <path class="cls-2" d="m1150.65,1173.31c-132.54-2.45-261.87-12.76-384.42-57.97-58.55-21.6-112.25-49.78-156.78-90.6-61.84-56.7-89.93-124.3-84.68-202.83,6.66-99.7,19.26-198.75,45.7-295.99,7.72-28.39,19.88-55.87,30.73-83.54,3.34-8.52,8.59-16.56,13.85-24.35,35.1-52,79.93-61.24,133.79-23.54,33.45,23.41,64.23,50.57,92.34,79.04,34.16,34.6,70.3,52.84,125.97,47.75,81.58-7.46,163,4.09,243.03,20.5,66.61,13.66,69.09,17.98,85.43,2.14,174.61-169.24,216.57-157.25,253.93-118.16,27.26,28.53,36.83,63.63,44.09,99.06,19.34,94.42,16.51,189.71,11.47,284.9-2.47,46.49-5.02,93.27-13,139.18-16.72,96.19-83.13,156.83-183.69,190.93-82.6,28.01-168.6,34.87-257.76,33.48Zm-480.5-321.11c.36,67.88,46.14,116.17,121.69,128.39,69.65,11.27,131.44-20.28,157.95-80.65,24.57-55.95,7.38-116.92-42.56-150.93-51.79-35.27-128.61-36.63-178.88-2.23-37.68,25.78-54.11,61.63-58.2,105.43Zm531.65-64.82c-4.08,3.55-8.3,7-12.23,10.68-44.58,41.7-53.23,110.94-20.13,160.82,31.01,46.74,100.26,71.01,162.39,56.91,58.65-13.31,97.57-53.62,106.64-110.46,7.98-50.04-19.07-102.38-65.52-126.81-53.99-28.39-120.24-25.42-171.15,8.87Zm-133.5,262.61c22.58-13.47,25.04-23.33,6.66-30.09-27.56-10.14-56.57-11.68-85.48-4.86-14.15,3.34-16.1,11.39-6.84,21.55,19.49,21.39,55.37,27.63,85.66,13.4Z"/>
    <path class="cls-2" d="m1196.11,1647.45c-187.11-98.36,53.98-158.29-6.72-174.25-10.46-2.75-66.77,43.75-103.94,110.47-11.06,19.84-67.4,25.89-64.32-13.77,3.53-45.45,7.02-90.94,8.78-136.47.52-13.49,7.18-33.68-6.88-41.88-41.64-24.29-7.05,205.93-36.14,244.93-43,57.65-50.2-60.83-73.63-210.78-6.95-44.47-2.98-5.64-61.16-69.15-75.57-82.48-116.37-229.73-52.26-205.72,178.63,66.92,379.16,58.8,568.89,24.56,46.2-8.34,234.47,220.57,193.29,231.85-18.97,5.19-33.73-51.04-90.07-43.79-36.14,4.65-65.19,23.52-70.11,58.37-9.12,64.66-4.65,130.65-7.47,195.8-.19,4.47-3.63,11.3-7.63,12.86-60.91,23.72-145.8,40.55-190.63,16.99Z"/>
    <path class="cls-3" d="m1529.27,1931.87c-11.83,132.89-95.84,209.23-206.69,194.91-101.83-13.16-143.37-92.65-153.88-205.39-1.83-19.66-.15-40.72,3.9-59.96,5.08-24.13,24.09-37.7,46.03-38.28,22.39-.59,37.35,9.84,44.35,36.47,8.04,30.57,12.27,62.5,19.75,93.31,9.15,37.66,32.36,57.73,63.96,57.55,26.12-.14,45.41-13.83,57.28-41.44,16.98-39.49,16.72-82.38,17.33-124.99,1.8-125.18,3.16-250.36,5.3-375.53.26-15.12,2.62-30.78,6.75-45.1,7.5-26.04,25.78-39.41,49.44-39.31,23.77.11,42.08,13.2,49.06,39.67,4.65,17.65,6.99,36.93,6.84,55.44-1,121.69-2.74,243.37-4.76,365.05-.47,28.61-2.91,57.17-4.67,87.61Z"/>
    <path class="cls-2" d="m794.03,1491.62c-6.48-54.77-7.93-108.53-11.19-162.14-.33-5.48-1-16.75,5.61-16.75,30.96,0,19.19,51.7,89.21,96.72,4.28,2.75,7.99,8.96,8.09,13.69,1.32,62.93,6.98,126.17-7.07,188.84-6.19,27.59-45.52,31.49-52.88,3.27,0,0-26.75-81.15-31.78-123.62Z"/>
    <path class="cls-2" d="m1092.67,1607.47c28.77-2.07,38.6,21.61,56.34,34.36,10.37,7.46,8.89,15.02-7.63,14.72-38.68-.7-111.76,12.21-129.55-9.22-20.87-25.14,45.05-37.28,80.84-39.86Z"/>
    <ellipse class="cls-2" cx="815.51" cy="852.3" rx="102.09" ry="90.43"/>
    <ellipse class="cls-2" cx="1294.62" cy="889.51" rx="102.09" ry="90.43"/>
    <path class="cls-3" d="m1729.45,1890.16h-31.29v172.17c0,22.66-4.11,39.36-12.34,50.08-8.23,10.72-18.95,16.08-32.19,16.08-14.24,0-25.27-5.61-33.09-16.81-7.82-11.21-11.73-27.66-11.73-49.35v-412.32c0-23.39,4.31-40.33,12.94-50.81,8.62-10.47,22.56-15.72,41.82-15.72h145.31c20.05,0,37.2,1.04,51.45,3.11,14.24,2.07,27.08,6.28,38.51,12.61,13.84,7.07,26.07,17.18,36.7,30.34,10.63,13.16,18.7,28.46,24.22,45.87,5.51,17.43,8.27,35.89,8.27,55.38,0,39.97-9.28,71.89-27.83,95.77-18.55,23.89-46.68,40.82-84.39,50.81,15.84,10.23,30.99,25.35,45.43,45.33,14.44,19.98,27.33,41.25,38.66,63.79,11.33,22.54,20.16,42.89,26.48,61.04,6.32,18.16,9.48,30.65,9.48,37.47s-1.86,14.07-5.57,21.02c-3.71,6.94-8.78,12.43-15.19,16.45-6.42,4.02-13.84,6.03-22.26,6.03-10.03,0-18.46-2.87-25.27-8.59-6.82-5.72-12.69-12.98-17.6-21.75-4.92-8.77-11.58-21.69-20.01-38.75l-35.8-72.38c-12.84-26.56-24.32-46.79-34.45-60.68-10.13-13.89-20.41-23.39-30.84-28.51-10.43-5.12-23.57-7.68-39.41-7.68Zm51.15-225.17h-82.43v147.31h80.03c21.46,0,39.51-2.25,54.15-6.76,14.64-4.51,25.82-12.18,33.55-23.03,7.72-10.84,11.58-25.77,11.58-44.78,0-14.86-3.11-27.96-9.33-39.29-6.22-11.33-14.85-19.8-25.87-25.4-10.43-5.36-30.99-8.04-61.68-8.04Z"/>
  </g>
</svg>