<?xml version="1.0" encoding="utf-8"?>
<!-- Generator: Adobe Adobe Illustrator 24.2.0, SVG Export Plug-In . SVG Version: 6.00 Build 0)  -->
<svg version="1.1" xmlns="http://www.w3.org/2000/svg" xmlns:xlink="http://www.w3.org/1999/xlink" x="0px" y="0px" width="2500px"
	 height="2500px" viewBox="0 0 2500 2500" style="enable-background:new 0 0 2500 2500;" xml:space="preserve">
<style type="text/css">
	.st0{fill:#136E61;}
	.st1{fill:#FFFFFF;}
	.st2{font-family:'ArialRoundedMTBold';}
	.st3{font-size:1100.2991px;}
</style>
<g id="Layer_2">
</g>
<g id="Layer_3">
	<g>
		<g>
			<path class="st1" d="M1023.67,1111.45c-177.27-3.28-350.24-17.07-514.15-77.53c-78.31-28.89-150.13-66.58-209.69-121.18
				c-82.72-75.83-120.28-166.25-113.26-271.28c8.91-133.34,25.76-265.83,61.12-395.87c10.32-37.97,26.59-74.72,41.1-111.73
				c4.47-11.39,11.49-22.15,18.53-32.57c46.94-69.55,106.91-81.9,178.94-31.49c44.74,31.31,85.9,67.64,123.5,105.72
				c45.69,46.27,94.02,70.67,168.48,63.86c109.1-9.98,218.01,5.46,325.04,27.42c89.09,18.27,92.4,24.05,114.26,2.86
				c233.53-226.35,289.66-210.32,339.62-158.03c36.46,38.16,49.26,85.1,58.97,132.49c25.86,126.28,22.09,253.73,15.34,381.04
				c-3.3,62.18-6.71,124.75-17.39,186.15c-22.36,128.65-111.18,209.76-245.67,255.36
				C1257.94,1104.13,1142.92,1113.31,1023.67,1111.45z M381.03,681.98c0.49,90.78,61.71,155.37,162.75,171.72
				c93.16,15.07,175.79-27.12,211.25-107.87c32.86-74.83,9.87-156.38-56.93-201.87c-69.27-47.17-172.01-48.99-239.24-2.99
				C408.47,575.46,386.49,623.41,381.03,681.98z M1092.09,595.28c-5.46,4.75-11.1,9.36-16.36,14.28
				c-59.63,55.77-71.19,148.38-26.93,215.09c41.47,62.51,134.09,94.97,217.2,76.11c78.45-17.8,130.5-71.72,142.63-147.74
				c10.67-66.92-25.5-136.93-87.63-169.6C1248.78,545.45,1160.17,549.42,1092.09,595.28z M913.53,946.51
				c30.2-18.01,33.5-31.2,8.91-40.24c-36.86-13.56-75.66-15.62-114.33-6.5c-18.93,4.47-21.53,15.23-9.15,28.82
				C825.03,957.2,873.01,965.54,913.53,946.51z"/>
			<path class="st1" d="M1084.47,1745.59c-250.25-131.55,72.19-211.71-8.99-233.05c-13.99-3.68-89.31,58.52-139.02,147.74
				c-14.79,26.54-90.15,34.62-86.02-18.42c4.73-60.79,9.38-121.63,11.74-182.53c0.7-18.04,9.6-45.04-9.2-56.01
				c-55.69-32.49-9.43,275.43-48.33,327.58c-57.52,77.1-67.15-81.36-98.48-281.92c-9.29-59.48-3.98-7.55-81.8-92.49
				c-101.07-110.32-155.64-307.26-69.9-275.14c238.92,89.5,507.11,78.65,760.87,32.84c61.79-11.15,313.6,295.01,258.51,310.09
				c-25.37,6.95-45.11-68.27-120.46-58.57c-48.34,6.22-87.19,31.45-93.76,78.07c-12.2,86.49-6.21,174.74-9.99,261.87
				c-0.26,5.98-4.85,15.12-10.21,17.2C1257.97,1754.6,1144.43,1777.11,1084.47,1745.59z"/>
			<path class="st1" d="M1530.07,2126c-15.82,177.74-128.18,279.84-276.45,260.68c-136.19-17.6-191.76-123.91-205.8-274.7
				c-2.45-26.3-0.21-54.46,5.21-80.2c6.79-32.27,32.22-50.43,61.57-51.19c29.94-0.78,49.95,13.17,59.32,48.78
				c10.75,40.88,16.41,83.6,26.42,124.79c12.24,50.37,43.29,77.21,85.55,76.97c34.93-0.19,60.73-18.49,76.61-55.43
				c22.71-52.82,22.36-110.18,23.18-167.17c2.41-167.42,4.23-334.85,7.08-502.26c0.34-20.23,3.51-41.17,9.02-60.33
				c10.03-34.83,34.48-52.71,66.12-52.57c31.8,0.14,56.29,17.65,65.61,53.06c6.22,23.61,9.35,49.39,9.15,74.14
				c-1.34,162.76-3.67,325.51-6.36,488.24C1535.68,2047.08,1532.42,2085.28,1530.07,2126z"/>
			<path class="st1" d="M546.7,1537.18c-8.67-73.25-10.6-145.16-14.96-216.86c-0.45-7.33-1.33-22.4,7.51-22.4
				c41.41,0,25.67,69.14,119.32,129.35c5.73,3.68,10.68,11.99,10.82,18.31c1.77,84.17,9.33,168.74-9.46,252.57
				c-8.27,36.91-60.88,42.12-70.72,4.38C589.2,1702.52,553.42,1593.98,546.7,1537.18z"/>
			<path class="st1" d="M946.13,1692.12c38.47-2.77,51.63,28.9,75.35,45.96c13.86,9.97,11.89,20.08-10.2,19.68
				c-51.73-0.94-149.47,16.34-173.27-12.33C810.09,1711.81,898.26,1695.57,946.13,1692.12z"/>
			<ellipse class="st1" cx="575.44" cy="682.11" rx="136.54" ry="120.95"/>
			<ellipse class="st1" cx="1216.22" cy="731.87" rx="136.54" ry="120.95"/>
		</g>
		<text transform="matrix(1 0 0 1 1522.8745 2372.4141)" class="st1 st2 st3">R</text>
	</g>
</g>
</svg>
